<?xml version="1.0" standalone="no"?>
<!DOCTYPE svg PUBLIC "-//W3C//DTD SVG 20010904//EN"
 "http://www.w3.org/TR/2001/REC-SVG-20010904/DTD/svg10.dtd">
<svg version="1.0" xmlns="http://www.w3.org/2000/svg"
 width="512.000000pt" height="487.000000pt" viewBox="0 0 512.000000 487.000000"
 preserveAspectRatio="xMidYMid meet">

<g transform="translate(0.000000,487.000000) scale(0.100000,-0.100000)"
fill="#000000" stroke="none">
<path d="M981 2763 c-40 -8 -69 -32 -91 -78 -19 -38 -20 -49 -10 -87 15 -55
107 -235 124 -241 21 -8 31 4 87 108 47 89 53 107 54 160 0 85 -34 127 -110
138 -16 3 -41 2 -54 0z m79 -85 c28 -30 27 -82 -2 -102 -48 -34 -103 -14 -114
41 -5 26 -1 37 19 57 32 32 69 33 97 4z"/>
<path d="M1560 2505 c0 -22 4 -25 36 -25 l36 0 -7 -40 c-4 -22 -4 -63 0 -90 6
-47 9 -50 36 -50 l29 0 0 90 0 90 35 0 c31 0 35 3 35 25 l0 25 -100 0 -100 0
0 -25z"/>
<path d="M1800 2505 c0 -24 2 -25 65 -25 51 0 66 -4 74 -18 19 -36 -4 -52 -74
-52 l-65 0 0 -55 c0 -54 0 -55 30 -55 21 0 30 5 31 18 1 9 2 24 3 32 2 30 35
22 58 -14 18 -29 29 -36 55 -36 l32 0 -24 37 -25 36 20 19 c20 18 26 61 14 93
-11 28 -60 45 -129 45 -63 0 -65 -1 -65 -25z"/>
<path d="M2131 2512 c-14 -26 -91 -202 -91 -207 0 -3 13 -5 29 -5 28 0 32 5
61 83 18 45 33 83 35 85 1 2 18 -35 36 -82 33 -83 35 -86 66 -86 l32 0 -33 73
c-18 39 -41 91 -51 115 -15 35 -23 42 -46 42 -17 0 -32 -7 -38 -18z"/>
<path d="M2364 2496 c-29 -29 -34 -41 -34 -81 0 -40 5 -52 34 -81 29 -29 41
-34 83 -34 32 0 56 7 73 20 23 18 24 20 9 35 -13 13 -21 15 -37 6 -52 -28
-102 0 -102 57 0 30 21 61 43 63 23 2 52 -3 63 -12 7 -6 17 -2 28 10 17 19 17
20 -13 35 -16 9 -49 16 -72 16 -33 0 -47 -6 -75 -34z"/>
<path d="M2600 2488 l0 -42 30 29 c17 16 30 35 30 42 0 8 -12 13 -30 13 -29 0
-30 -2 -30 -42z"/>
<path d="M2673 2451 c-63 -67 -73 -83 -73 -115 0 -33 2 -36 30 -36 27 0 30 3
30 33 0 56 18 61 54 14 26 -34 39 -43 70 -45 l38 -3 -28 38 c-15 21 -38 49
-51 63 l-23 26 46 52 46 52 -34 -1 c-28 -1 -44 -13 -105 -78z"/>
<path d="M2876 2508 c15 -49 100 -178 116 -178 11 0 31 25 54 68 20 37 46 82
56 100 l20 32 -24 0 c-19 0 -32 -14 -62 -65 -21 -36 -41 -65 -45 -65 -4 0 -13
12 -20 28 -24 53 -64 102 -83 102 -15 0 -18 -5 -12 -22z"/>
<path d="M3206 2458 c34 -56 44 -82 44 -115 0 -41 1 -43 30 -43 28 0 30 2 30
40 0 41 26 104 61 149 25 31 24 41 -5 41 -17 0 -32 -13 -53 -46 l-30 -46 -20
29 c-11 15 -23 36 -26 46 -4 12 -17 17 -41 17 l-35 0 45 -72z"/>
<path d="M3432 2509 c3 -22 9 -24 67 -29 71 -6 96 -25 72 -54 -10 -12 -31 -16
-77 -16 l-64 0 0 -55 0 -55 35 0 c33 0 35 2 35 35 0 35 0 35 44 35 58 0 88 24
89 73 2 62 -27 81 -124 86 -80 3 -81 3 -77 -20z"/>
<path d="M3725 2468 c-15 -35 -35 -82 -46 -105 -25 -56 -24 -65 8 -61 23 3 31
15 62 86 26 61 38 78 42 65 50 -133 62 -153 91 -153 15 0 28 1 28 3 0 6 -69
167 -85 196 -12 24 -22 31 -44 31 -25 0 -31 -7 -56 -62z"/>
<path d="M3999 2515 c-27 -15 -59 -69 -59 -100 0 -32 33 -86 61 -100 53 -28
149 -12 149 26 0 23 -23 30 -59 16 -59 -22 -109 31 -82 89 15 34 49 45 87 29
23 -10 35 -10 43 -2 43 43 -74 78 -140 42z"/>
<path d="M4210 2483 l1 -48 29 35 c38 44 38 60 0 60 -29 0 -30 -1 -30 -47z"/>
<path d="M4288 2447 c-64 -67 -78 -88 -78 -114 0 -30 3 -33 30 -33 26 0 30 4
30 28 0 16 6 37 14 47 13 18 16 16 47 -28 28 -40 38 -47 66 -47 18 0 33 3 33
7 0 4 -17 27 -38 52 -59 71 -59 68 -6 122 l48 49 -34 0 c-31 0 -44 -10 -112
-83z"/>
<path d="M845 2447 c-37 -58 -30 -163 17 -222 48 -62 166 -88 233 -53 l30 16
62 -66 c60 -63 62 -65 85 -50 45 30 36 50 -56 125 l-39 32 17 40 c22 56 20
114 -5 163 -31 60 -49 32 -35 -54 11 -61 -7 -111 -49 -144 -114 -86 -268 17
-233 156 7 27 7 48 1 63 -10 21 -10 21 -28 -6z"/>
<path d="M2860 2366 c0 -64 1 -66 25 -66 18 0 25 5 25 19 0 11 -11 41 -25 67
l-25 47 0 -67z"/>
<path d="M3092 2381 c-30 -53 -29 -81 3 -81 24 0 25 3 25 60 0 33 -1 60 -3 60
-2 0 -13 -17 -25 -39z"/>
</g>
</svg>
